<?xml version="1.0" standalone="no"?>
<!DOCTYPE svg PUBLIC "-//W3C//DTD SVG 20010904//EN"
 "http://www.w3.org/TR/2001/REC-SVG-20010904/DTD/svg10.dtd">
<svg version="1.0" xmlns="http://www.w3.org/2000/svg"
 width="50.000000pt" height="50.000000pt" viewBox="0 0 50.000000 50.000000"
 preserveAspectRatio="xMidYMid meet">

<g transform="translate(0.000000,50.000000) scale(0.100000,-0.100000)"
fill="#000000" stroke="none">
<path d="M217 369 l-47 -29 0 -63 0 -62 48 -27 48 -27 42 25 c23 14 42 27 42
29 0 2 -16 13 -36 25 -30 19 -39 21 -61 11 -14 -7 -28 -9 -31 -7 -2 3 7 11 22
17 l27 13 -28 24 c-21 18 -23 22 -8 17 43 -15 51 -15 84 5 36 23 35 25 -19 58
l-35 21 -48 -30z"/>
<path d="M133 114 c-7 -19 11 -41 21 -25 4 6 2 11 -5 11 -8 0 -8 4 1 15 9 11
9 15 1 15 -6 0 -14 -7 -18 -16z"/>
</g>
</svg>
